<mxfile host="app.diagrams.net" agent="Mozilla/5.0 (Windows NT 10.0; Win64; x64) AppleWebKit/537.36 (KHTML, like Gecko) Chrome/139.0.0.0 Safari/537.36" version="27.2.0" pages="2">
  <diagram name="PÃ¡gina-1" id="1ds28ULG4IEkJzkLkbB6">
    <mxGraphModel dx="1023" dy="742" grid="1" gridSize="10" guides="1" tooltips="1" connect="1" arrows="1" fold="1" page="1" pageScale="1" pageWidth="827" pageHeight="1169" math="0" shadow="0">
      <root>
        <mxCell id="0" />
        <mxCell id="1" parent="0" />
        <mxCell id="ivbIRq-EEPFjOoGOeym_-14" value="" style="edgeStyle=orthogonalEdgeStyle;rounded=0;orthogonalLoop=1;jettySize=auto;html=1;" parent="1" source="ivbIRq-EEPFjOoGOeym_-1" target="ivbIRq-EEPFjOoGOeym_-13" edge="1">
          <mxGeometry relative="1" as="geometry" />
        </mxCell>
        <mxCell id="ivbIRq-EEPFjOoGOeym_-20" value="" style="edgeStyle=orthogonalEdgeStyle;rounded=0;orthogonalLoop=1;jettySize=auto;html=1;" parent="1" source="ivbIRq-EEPFjOoGOeym_-1" target="ivbIRq-EEPFjOoGOeym_-19" edge="1">
          <mxGeometry relative="1" as="geometry" />
        </mxCell>
        <mxCell id="ivbIRq-EEPFjOoGOeym_-1" value="LIVRO" style="rounded=0;whiteSpace=wrap;html=1;" parent="1" vertex="1">
          <mxGeometry x="680" y="320" width="120" height="60" as="geometry" />
        </mxCell>
        <mxCell id="ivbIRq-EEPFjOoGOeym_-17" value="" style="edgeStyle=orthogonalEdgeStyle;rounded=0;orthogonalLoop=1;jettySize=auto;html=1;" parent="1" source="ivbIRq-EEPFjOoGOeym_-2" target="ivbIRq-EEPFjOoGOeym_-16" edge="1">
          <mxGeometry relative="1" as="geometry" />
        </mxCell>
        <mxCell id="ivbIRq-EEPFjOoGOeym_-2" value="EMPRESTIMO" style="rounded=0;whiteSpace=wrap;html=1;" parent="1" vertex="1">
          <mxGeometry x="70" y="390" width="120" height="60" as="geometry" />
        </mxCell>
        <mxCell id="ivbIRq-EEPFjOoGOeym_-3" value="CATEGORIA" style="rounded=0;whiteSpace=wrap;html=1;" parent="1" vertex="1">
          <mxGeometry x="320" y="530" width="120" height="60" as="geometry" />
        </mxCell>
        <mxCell id="ivbIRq-EEPFjOoGOeym_-4" value="FUNCIONARIO" style="rounded=0;whiteSpace=wrap;html=1;" parent="1" vertex="1">
          <mxGeometry x="70" y="690" width="120" height="60" as="geometry" />
        </mxCell>
        <mxCell id="ivbIRq-EEPFjOoGOeym_-11" value="" style="edgeStyle=orthogonalEdgeStyle;rounded=0;orthogonalLoop=1;jettySize=auto;html=1;" parent="1" source="ivbIRq-EEPFjOoGOeym_-5" target="ivbIRq-EEPFjOoGOeym_-10" edge="1">
          <mxGeometry relative="1" as="geometry" />
        </mxCell>
        <mxCell id="ivbIRq-EEPFjOoGOeym_-5" value="RESERVA" style="rounded=0;whiteSpace=wrap;html=1;" parent="1" vertex="1">
          <mxGeometry x="460" y="100" width="120" height="60" as="geometry" />
        </mxCell>
        <mxCell id="ivbIRq-EEPFjOoGOeym_-8" value="" style="edgeStyle=orthogonalEdgeStyle;rounded=0;orthogonalLoop=1;jettySize=auto;html=1;" parent="1" source="ivbIRq-EEPFjOoGOeym_-6" target="ivbIRq-EEPFjOoGOeym_-7" edge="1">
          <mxGeometry relative="1" as="geometry" />
        </mxCell>
        <mxCell id="ivbIRq-EEPFjOoGOeym_-26" value="" style="edgeStyle=orthogonalEdgeStyle;rounded=0;orthogonalLoop=1;jettySize=auto;html=1;" parent="1" source="ivbIRq-EEPFjOoGOeym_-6" target="ivbIRq-EEPFjOoGOeym_-25" edge="1">
          <mxGeometry relative="1" as="geometry" />
        </mxCell>
        <mxCell id="ivbIRq-EEPFjOoGOeym_-6" value="aluno" style="rounded=0;whiteSpace=wrap;html=1;" parent="1" vertex="1">
          <mxGeometry x="70" y="100" width="120" height="60" as="geometry" />
        </mxCell>
        <mxCell id="ivbIRq-EEPFjOoGOeym_-9" value="" style="edgeStyle=orthogonalEdgeStyle;rounded=0;orthogonalLoop=1;jettySize=auto;html=1;" parent="1" source="ivbIRq-EEPFjOoGOeym_-7" target="ivbIRq-EEPFjOoGOeym_-5" edge="1">
          <mxGeometry relative="1" as="geometry" />
        </mxCell>
        <mxCell id="ivbIRq-EEPFjOoGOeym_-7" value="RESERVA" style="rhombus;whiteSpace=wrap;html=1;rounded=0;" parent="1" vertex="1">
          <mxGeometry x="310" y="90" width="80" height="80" as="geometry" />
        </mxCell>
        <mxCell id="ivbIRq-EEPFjOoGOeym_-12" value="" style="edgeStyle=orthogonalEdgeStyle;rounded=0;orthogonalLoop=1;jettySize=auto;html=1;" parent="1" source="ivbIRq-EEPFjOoGOeym_-10" target="ivbIRq-EEPFjOoGOeym_-1" edge="1">
          <mxGeometry relative="1" as="geometry" />
        </mxCell>
        <mxCell id="ivbIRq-EEPFjOoGOeym_-10" value="RESERVA" style="rhombus;whiteSpace=wrap;html=1;rounded=0;" parent="1" vertex="1">
          <mxGeometry x="700" y="90" width="80" height="80" as="geometry" />
        </mxCell>
        <mxCell id="ivbIRq-EEPFjOoGOeym_-15" value="" style="edgeStyle=orthogonalEdgeStyle;rounded=0;orthogonalLoop=1;jettySize=auto;html=1;" parent="1" source="ivbIRq-EEPFjOoGOeym_-13" target="ivbIRq-EEPFjOoGOeym_-2" edge="1">
          <mxGeometry relative="1" as="geometry">
            <Array as="points">
              <mxPoint x="520" y="350" />
              <mxPoint x="130" y="350" />
            </Array>
          </mxGeometry>
        </mxCell>
        <mxCell id="ivbIRq-EEPFjOoGOeym_-13" value="CONTEM" style="rhombus;whiteSpace=wrap;html=1;rounded=0;" parent="1" vertex="1">
          <mxGeometry x="490" y="310" width="80" height="80" as="geometry" />
        </mxCell>
        <mxCell id="ivbIRq-EEPFjOoGOeym_-18" value="" style="edgeStyle=orthogonalEdgeStyle;rounded=0;orthogonalLoop=1;jettySize=auto;html=1;" parent="1" source="ivbIRq-EEPFjOoGOeym_-16" target="ivbIRq-EEPFjOoGOeym_-4" edge="1">
          <mxGeometry relative="1" as="geometry" />
        </mxCell>
        <mxCell id="ivbIRq-EEPFjOoGOeym_-16" value="REGISTRA" style="rhombus;whiteSpace=wrap;html=1;rounded=0;" parent="1" vertex="1">
          <mxGeometry x="90" y="505" width="80" height="80" as="geometry" />
        </mxCell>
        <mxCell id="ivbIRq-EEPFjOoGOeym_-21" value="" style="edgeStyle=orthogonalEdgeStyle;rounded=0;orthogonalLoop=1;jettySize=auto;html=1;" parent="1" source="ivbIRq-EEPFjOoGOeym_-19" target="ivbIRq-EEPFjOoGOeym_-3" edge="1">
          <mxGeometry relative="1" as="geometry" />
        </mxCell>
        <mxCell id="ivbIRq-EEPFjOoGOeym_-19" value="CONTEM" style="rhombus;whiteSpace=wrap;html=1;rounded=0;" parent="1" vertex="1">
          <mxGeometry x="700" y="520" width="80" height="80" as="geometry" />
        </mxCell>
        <mxCell id="ivbIRq-EEPFjOoGOeym_-22" value="(1,1)" style="text;html=1;align=center;verticalAlign=middle;resizable=0;points=[];autosize=1;strokeColor=none;fillColor=none;" parent="1" vertex="1">
          <mxGeometry x="215" y="88" width="50" height="30" as="geometry" />
        </mxCell>
        <mxCell id="ivbIRq-EEPFjOoGOeym_-27" value="" style="edgeStyle=orthogonalEdgeStyle;rounded=0;orthogonalLoop=1;jettySize=auto;html=1;" parent="1" source="ivbIRq-EEPFjOoGOeym_-25" target="ivbIRq-EEPFjOoGOeym_-2" edge="1">
          <mxGeometry relative="1" as="geometry" />
        </mxCell>
        <mxCell id="ivbIRq-EEPFjOoGOeym_-25" value="REALIZA" style="rhombus;whiteSpace=wrap;html=1;rounded=0;" parent="1" vertex="1">
          <mxGeometry x="90" y="230" width="80" height="80" as="geometry" />
        </mxCell>
        <mxCell id="ivbIRq-EEPFjOoGOeym_-28" value="(1,1)" style="text;html=1;align=center;verticalAlign=middle;resizable=0;points=[];autosize=1;strokeColor=none;fillColor=none;" parent="1" vertex="1">
          <mxGeometry x="740" y="280" width="50" height="30" as="geometry" />
        </mxCell>
        <mxCell id="ivbIRq-EEPFjOoGOeym_-29" value="(1,1)" style="text;html=1;align=center;verticalAlign=middle;resizable=0;points=[];autosize=1;strokeColor=none;fillColor=none;" parent="1" vertex="1">
          <mxGeometry x="580" y="320" width="50" height="30" as="geometry" />
        </mxCell>
        <mxCell id="ivbIRq-EEPFjOoGOeym_-30" value="(1,1)" style="text;html=1;align=center;verticalAlign=middle;resizable=0;points=[];autosize=1;strokeColor=none;fillColor=none;" parent="1" vertex="1">
          <mxGeometry x="140" y="660" width="50" height="30" as="geometry" />
        </mxCell>
        <mxCell id="ivbIRq-EEPFjOoGOeym_-31" value="(1,1)" style="text;html=1;align=center;verticalAlign=middle;resizable=0;points=[];autosize=1;strokeColor=none;fillColor=none;" parent="1" vertex="1">
          <mxGeometry x="450" y="530" width="50" height="30" as="geometry" />
        </mxCell>
        <mxCell id="ivbIRq-EEPFjOoGOeym_-32" value="(1,N)" style="text;html=1;align=center;verticalAlign=middle;resizable=0;points=[];autosize=1;strokeColor=none;fillColor=none;" parent="1" vertex="1">
          <mxGeometry x="130" y="450" width="50" height="30" as="geometry" />
        </mxCell>
        <mxCell id="ivbIRq-EEPFjOoGOeym_-33" value="(1,N)" style="text;html=1;align=center;verticalAlign=middle;resizable=0;points=[];autosize=1;strokeColor=none;fillColor=none;" parent="1" vertex="1">
          <mxGeometry x="730" y="380" width="50" height="30" as="geometry" />
        </mxCell>
        <mxCell id="ivbIRq-EEPFjOoGOeym_-35" value="(0,N)" style="text;html=1;align=center;verticalAlign=middle;resizable=0;points=[];autosize=1;strokeColor=none;fillColor=none;" parent="1" vertex="1">
          <mxGeometry x="580" y="100" width="50" height="30" as="geometry" />
        </mxCell>
        <mxCell id="ivbIRq-EEPFjOoGOeym_-36" value="(0,N)" style="text;html=1;align=center;verticalAlign=middle;resizable=0;points=[];autosize=1;strokeColor=none;fillColor=none;" parent="1" vertex="1">
          <mxGeometry x="420" y="100" width="50" height="30" as="geometry" />
        </mxCell>
        <mxCell id="ivbIRq-EEPFjOoGOeym_-37" value="(0,N)" style="text;html=1;align=center;verticalAlign=middle;resizable=0;points=[];autosize=1;strokeColor=none;fillColor=none;" parent="1" vertex="1">
          <mxGeometry x="350" y="320" width="50" height="30" as="geometry" />
        </mxCell>
        <mxCell id="ivbIRq-EEPFjOoGOeym_-38" value="(0,N)" style="text;html=1;align=center;verticalAlign=middle;resizable=0;points=[];autosize=1;strokeColor=none;fillColor=none;" parent="1" vertex="1">
          <mxGeometry x="80" y="360" width="50" height="30" as="geometry" />
        </mxCell>
        <mxCell id="ivbIRq-EEPFjOoGOeym_-40" value="(1,1)" style="text;html=1;align=center;verticalAlign=middle;resizable=0;points=[];autosize=1;strokeColor=none;fillColor=none;" parent="1" vertex="1">
          <mxGeometry x="130" y="160" width="50" height="30" as="geometry" />
        </mxCell>
        <mxCell id="ivbIRq-EEPFjOoGOeym_-42" value="" style="endArrow=none;html=1;rounded=0;" parent="1" target="ivbIRq-EEPFjOoGOeym_-47" edge="1">
          <mxGeometry width="50" height="50" relative="1" as="geometry">
            <mxPoint x="80" y="100" as="sourcePoint" />
            <mxPoint x="60" y="50" as="targetPoint" />
          </mxGeometry>
        </mxCell>
        <mxCell id="ivbIRq-EEPFjOoGOeym_-43" value="" style="endArrow=none;html=1;rounded=0;" parent="1" edge="1">
          <mxGeometry width="50" height="50" relative="1" as="geometry">
            <mxPoint x="110" y="100" as="sourcePoint" />
            <mxPoint x="130" y="50" as="targetPoint" />
            <Array as="points">
              <mxPoint x="130" y="50" />
            </Array>
          </mxGeometry>
        </mxCell>
        <mxCell id="ivbIRq-EEPFjOoGOeym_-44" value="" style="endArrow=none;html=1;rounded=0;" parent="1" edge="1">
          <mxGeometry width="50" height="50" relative="1" as="geometry">
            <mxPoint x="140" y="100" as="sourcePoint" />
            <mxPoint x="190" y="50" as="targetPoint" />
          </mxGeometry>
        </mxCell>
        <mxCell id="ivbIRq-EEPFjOoGOeym_-46" value="" style="endArrow=none;html=1;rounded=0;" parent="1" edge="1">
          <mxGeometry width="50" height="50" relative="1" as="geometry">
            <mxPoint x="180" y="100" as="sourcePoint" />
            <mxPoint x="260" y="60" as="targetPoint" />
          </mxGeometry>
        </mxCell>
        <mxCell id="ivbIRq-EEPFjOoGOeym_-47" value="EMAIL" style="ellipse;whiteSpace=wrap;html=1;" parent="1" vertex="1">
          <mxGeometry y="10" width="70" height="30" as="geometry" />
        </mxCell>
        <mxCell id="ivbIRq-EEPFjOoGOeym_-48" value="&lt;b style=&quot;background-color: light-dark(transparent, rgb(8, 8, 8));&quot;&gt;MATRICULA&lt;/b&gt;" style="ellipse;whiteSpace=wrap;html=1;fillColor=light-dark(#FFFFFF,#FFFF66);" parent="1" vertex="1">
          <mxGeometry x="95" y="20" width="70" height="30" as="geometry" />
        </mxCell>
        <mxCell id="ivbIRq-EEPFjOoGOeym_-49" value="CURSO" style="ellipse;whiteSpace=wrap;html=1;" parent="1" vertex="1">
          <mxGeometry x="165" y="20" width="70" height="30" as="geometry" />
        </mxCell>
        <mxCell id="ivbIRq-EEPFjOoGOeym_-50" value="NOME" style="ellipse;whiteSpace=wrap;html=1;" parent="1" vertex="1">
          <mxGeometry x="240" y="30" width="70" height="30" as="geometry" />
        </mxCell>
        <mxCell id="ivbIRq-EEPFjOoGOeym_-51" value="" style="endArrow=none;html=1;rounded=0;" parent="1" edge="1">
          <mxGeometry width="50" height="50" relative="1" as="geometry">
            <mxPoint x="490" y="100" as="sourcePoint" />
            <mxPoint x="480" y="50" as="targetPoint" />
          </mxGeometry>
        </mxCell>
        <mxCell id="ivbIRq-EEPFjOoGOeym_-52" value="" style="endArrow=none;html=1;rounded=0;" parent="1" edge="1">
          <mxGeometry width="50" height="50" relative="1" as="geometry">
            <mxPoint x="530" y="100" as="sourcePoint" />
            <mxPoint x="560" y="50" as="targetPoint" />
          </mxGeometry>
        </mxCell>
        <mxCell id="ivbIRq-EEPFjOoGOeym_-53" value="INICIO RESERVA" style="ellipse;whiteSpace=wrap;html=1;" parent="1" vertex="1">
          <mxGeometry x="440" y="20" width="70" height="30" as="geometry" />
        </mxCell>
        <mxCell id="ivbIRq-EEPFjOoGOeym_-54" value="FIM RESERVA" style="ellipse;whiteSpace=wrap;html=1;" parent="1" vertex="1">
          <mxGeometry x="540" y="20" width="70" height="30" as="geometry" />
        </mxCell>
        <mxCell id="ivbIRq-EEPFjOoGOeym_-55" value="" style="endArrow=none;html=1;rounded=0;" parent="1" edge="1">
          <mxGeometry width="50" height="50" relative="1" as="geometry">
            <mxPoint x="770" y="320" as="sourcePoint" />
            <mxPoint x="800" y="270" as="targetPoint" />
          </mxGeometry>
        </mxCell>
        <mxCell id="ivbIRq-EEPFjOoGOeym_-56" value="" style="endArrow=none;html=1;rounded=0;exitX=1;exitY=0.25;exitDx=0;exitDy=0;" parent="1" source="ivbIRq-EEPFjOoGOeym_-1" edge="1">
          <mxGeometry width="50" height="50" relative="1" as="geometry">
            <mxPoint x="810" y="340" as="sourcePoint" />
            <mxPoint x="850" y="320" as="targetPoint" />
          </mxGeometry>
        </mxCell>
        <mxCell id="ivbIRq-EEPFjOoGOeym_-57" value="" style="endArrow=none;html=1;rounded=0;exitX=1;exitY=0.75;exitDx=0;exitDy=0;" parent="1" source="ivbIRq-EEPFjOoGOeym_-1" edge="1">
          <mxGeometry width="50" height="50" relative="1" as="geometry">
            <mxPoint x="840" y="430" as="sourcePoint" />
            <mxPoint x="870" y="380" as="targetPoint" />
          </mxGeometry>
        </mxCell>
        <mxCell id="ivbIRq-EEPFjOoGOeym_-58" value="" style="endArrow=none;html=1;rounded=0;entryX=1;entryY=1;entryDx=0;entryDy=0;" parent="1" target="ivbIRq-EEPFjOoGOeym_-1" edge="1">
          <mxGeometry width="50" height="50" relative="1" as="geometry">
            <mxPoint x="840" y="430" as="sourcePoint" />
            <mxPoint x="820" y="380" as="targetPoint" />
          </mxGeometry>
        </mxCell>
        <mxCell id="ivbIRq-EEPFjOoGOeym_-59" value="NOME" style="ellipse;whiteSpace=wrap;html=1;" parent="1" vertex="1">
          <mxGeometry x="790" y="240" width="70" height="30" as="geometry" />
        </mxCell>
        <mxCell id="ivbIRq-EEPFjOoGOeym_-60" value="AUTOR" style="ellipse;whiteSpace=wrap;html=1;" parent="1" vertex="1">
          <mxGeometry x="850" y="300" width="70" height="30" as="geometry" />
        </mxCell>
        <mxCell id="ivbIRq-EEPFjOoGOeym_-62" value="&lt;b style=&quot;background-color: light-dark(transparent, rgb(8, 8, 8));&quot;&gt;ID LIVRO&lt;/b&gt;" style="ellipse;whiteSpace=wrap;html=1;fillColor=light-dark(#FFFFFF,#FFFF66);" parent="1" vertex="1">
          <mxGeometry x="870" y="370" width="70" height="30" as="geometry" />
        </mxCell>
        <mxCell id="ivbIRq-EEPFjOoGOeym_-63" value="&lt;b style=&quot;background-color: light-dark(transparent, rgb(8, 8, 8));&quot;&gt;ISBN&lt;/b&gt;" style="ellipse;whiteSpace=wrap;html=1;fillColor=light-dark(#FFFFFF,#FFFF66);" parent="1" vertex="1">
          <mxGeometry x="827" y="420" width="70" height="30" as="geometry" />
        </mxCell>
        <mxCell id="ivbIRq-EEPFjOoGOeym_-64" value="&lt;b style=&quot;background-color: light-dark(transparent, rgb(8, 8, 8));&quot;&gt;ID CATEGORIA&lt;/b&gt;" style="ellipse;whiteSpace=wrap;html=1;fillColor=light-dark(#FFFFFF,#FFFF66);" parent="1" vertex="1">
          <mxGeometry x="430" y="650" width="70" height="30" as="geometry" />
        </mxCell>
        <mxCell id="ivbIRq-EEPFjOoGOeym_-65" value="" style="endArrow=none;html=1;rounded=0;exitX=1;exitY=0.75;exitDx=0;exitDy=0;" parent="1" edge="1">
          <mxGeometry width="50" height="50" relative="1" as="geometry">
            <mxPoint x="410" y="590" as="sourcePoint" />
            <mxPoint x="450" y="650" as="targetPoint" />
          </mxGeometry>
        </mxCell>
        <mxCell id="ivbIRq-EEPFjOoGOeym_-66" style="edgeStyle=orthogonalEdgeStyle;rounded=0;orthogonalLoop=1;jettySize=auto;html=1;exitX=0.5;exitY=1;exitDx=0;exitDy=0;" parent="1" source="ivbIRq-EEPFjOoGOeym_-64" target="ivbIRq-EEPFjOoGOeym_-64" edge="1">
          <mxGeometry relative="1" as="geometry" />
        </mxCell>
        <mxCell id="ivbIRq-EEPFjOoGOeym_-67" value="" style="endArrow=none;html=1;rounded=0;exitX=1;exitY=0.25;exitDx=0;exitDy=0;" parent="1" edge="1">
          <mxGeometry width="50" height="50" relative="1" as="geometry">
            <mxPoint x="360" y="595" as="sourcePoint" />
            <mxPoint x="360" y="650" as="targetPoint" />
          </mxGeometry>
        </mxCell>
        <mxCell id="ivbIRq-EEPFjOoGOeym_-68" value="" style="endArrow=none;html=1;rounded=0;" parent="1" edge="1">
          <mxGeometry width="50" height="50" relative="1" as="geometry">
            <mxPoint x="290" y="650" as="sourcePoint" />
            <mxPoint x="360" y="590" as="targetPoint" />
          </mxGeometry>
        </mxCell>
        <mxCell id="ivbIRq-EEPFjOoGOeym_-69" value="NOME" style="ellipse;whiteSpace=wrap;html=1;" parent="1" vertex="1">
          <mxGeometry x="320" y="650" width="70" height="30" as="geometry" />
        </mxCell>
        <mxCell id="ivbIRq-EEPFjOoGOeym_-70" value="DESCRIÃÃO" style="ellipse;whiteSpace=wrap;html=1;" parent="1" vertex="1">
          <mxGeometry x="235" y="640" width="70" height="30" as="geometry" />
        </mxCell>
        <mxCell id="ivbIRq-EEPFjOoGOeym_-71" value="" style="endArrow=none;html=1;rounded=0;exitX=1;exitY=0.25;exitDx=0;exitDy=0;" parent="1" source="ivbIRq-EEPFjOoGOeym_-2" edge="1">
          <mxGeometry width="50" height="50" relative="1" as="geometry">
            <mxPoint x="180" y="470" as="sourcePoint" />
            <mxPoint x="250" y="410" as="targetPoint" />
          </mxGeometry>
        </mxCell>
        <mxCell id="ivbIRq-EEPFjOoGOeym_-72" value="" style="endArrow=none;html=1;rounded=0;exitX=1;exitY=0.75;exitDx=0;exitDy=0;" parent="1" source="ivbIRq-EEPFjOoGOeym_-2" edge="1">
          <mxGeometry width="50" height="50" relative="1" as="geometry">
            <mxPoint x="200" y="490" as="sourcePoint" />
            <mxPoint x="270" y="470" as="targetPoint" />
          </mxGeometry>
        </mxCell>
        <mxCell id="ivbIRq-EEPFjOoGOeym_-73" value="DATA INICIO" style="ellipse;whiteSpace=wrap;html=1;" parent="1" vertex="1">
          <mxGeometry x="250" y="390" width="70" height="30" as="geometry" />
        </mxCell>
        <mxCell id="ivbIRq-EEPFjOoGOeym_-74" value="DATA TERMINO" style="ellipse;whiteSpace=wrap;html=1;" parent="1" vertex="1">
          <mxGeometry x="265" y="460" width="70" height="30" as="geometry" />
        </mxCell>
        <mxCell id="ivbIRq-EEPFjOoGOeym_-75" value="&lt;b style=&quot;background-color: light-dark(transparent, rgb(8, 8, 8));&quot;&gt;FUNCIONARIO&lt;/b&gt;" style="ellipse;whiteSpace=wrap;html=1;fillColor=light-dark(#FFFFFF,#FFFF66);" parent="1" vertex="1">
          <mxGeometry x="40" y="830" width="70" height="30" as="geometry" />
        </mxCell>
        <mxCell id="ivbIRq-EEPFjOoGOeym_-76" value="NOME" style="ellipse;whiteSpace=wrap;html=1;" parent="1" vertex="1">
          <mxGeometry x="130" y="810" width="70" height="30" as="geometry" />
        </mxCell>
        <mxCell id="ivbIRq-EEPFjOoGOeym_-77" value="EMAIL" style="ellipse;whiteSpace=wrap;html=1;" parent="1" vertex="1">
          <mxGeometry x="220" y="780" width="70" height="30" as="geometry" />
        </mxCell>
        <mxCell id="ivbIRq-EEPFjOoGOeym_-78" value="" style="endArrow=none;html=1;rounded=0;exitX=1;exitY=0.75;exitDx=0;exitDy=0;" parent="1" edge="1">
          <mxGeometry width="50" height="50" relative="1" as="geometry">
            <mxPoint x="180" y="740" as="sourcePoint" />
            <mxPoint x="220" y="800" as="targetPoint" />
          </mxGeometry>
        </mxCell>
        <mxCell id="ivbIRq-EEPFjOoGOeym_-79" value="" style="endArrow=none;html=1;rounded=0;exitX=1;exitY=0.75;exitDx=0;exitDy=0;" parent="1" edge="1">
          <mxGeometry width="50" height="50" relative="1" as="geometry">
            <mxPoint x="130" y="750" as="sourcePoint" />
            <mxPoint x="170" y="810" as="targetPoint" />
          </mxGeometry>
        </mxCell>
        <mxCell id="ivbIRq-EEPFjOoGOeym_-80" value="" style="endArrow=none;html=1;rounded=0;exitX=1;exitY=0.75;exitDx=0;exitDy=0;entryX=0.5;entryY=0;entryDx=0;entryDy=0;" parent="1" target="ivbIRq-EEPFjOoGOeym_-75" edge="1">
          <mxGeometry width="50" height="50" relative="1" as="geometry">
            <mxPoint x="70" y="740" as="sourcePoint" />
            <mxPoint x="110" y="800" as="targetPoint" />
          </mxGeometry>
        </mxCell>
        <mxCell id="ivbIRq-EEPFjOoGOeym_-81" value="" style="triangle;whiteSpace=wrap;html=1;rotation=90;" parent="1" vertex="1">
          <mxGeometry x="50" y="210" width="40" height="50" as="geometry" />
        </mxCell>
        <mxCell id="ivbIRq-EEPFjOoGOeym_-82" value="" style="triangle;whiteSpace=wrap;html=1;rotation=0;" parent="1" vertex="1">
          <mxGeometry x="195" y="180" width="40" height="50" as="geometry" />
        </mxCell>
        <mxCell id="ivbIRq-EEPFjOoGOeym_-83" value="" style="triangle;whiteSpace=wrap;html=1;rotation=0;" parent="1" vertex="1">
          <mxGeometry x="420" y="260" width="40" height="50" as="geometry" />
        </mxCell>
        <mxCell id="ivbIRq-EEPFjOoGOeym_-84" value="" style="triangle;whiteSpace=wrap;html=1;rotation=-91;" parent="1" vertex="1">
          <mxGeometry x="170" y="490" width="30" height="40" as="geometry" />
        </mxCell>
        <mxCell id="ivbIRq-EEPFjOoGOeym_-85" value="" style="triangle;whiteSpace=wrap;html=1;rotation=0;" parent="1" vertex="1">
          <mxGeometry x="500" y="590" width="40" height="50" as="geometry" />
        </mxCell>
      </root>
    </mxGraphModel>
  </diagram>
  <diagram id="Evqh-hRopZGO765ezvWT" name="PÃ¡gina-2">
    <mxGraphModel dx="784" dy="742" grid="1" gridSize="10" guides="1" tooltips="1" connect="1" arrows="1" fold="1" page="1" pageScale="1" pageWidth="827" pageHeight="1169" math="0" shadow="0">
      <root>
        <mxCell id="0" />
        <mxCell id="1" parent="0" />
        <mxCell id="O671pm1vnd5rE1woO-lj-45" value="" style="rounded=0;whiteSpace=wrap;html=1;" vertex="1" parent="1">
          <mxGeometry x="53.5" y="160" width="586.5" height="415" as="geometry" />
        </mxCell>
        <mxCell id="O671pm1vnd5rE1woO-lj-1" value="" style="outlineConnect=0;dashed=0;verticalLabelPosition=bottom;verticalAlign=top;align=center;html=1;shape=mxgraph.aws3.cloud_2;fillColor=#F58534;gradientColor=none;" vertex="1" parent="1">
          <mxGeometry x="490" y="209" width="50" height="50" as="geometry" />
        </mxCell>
        <mxCell id="O671pm1vnd5rE1woO-lj-3" value="usuÃ¡rio" style="shape=umlActor;verticalLabelPosition=bottom;verticalAlign=top;html=1;outlineConnect=0;" vertex="1" parent="1">
          <mxGeometry x="97" y="740" width="30" height="60" as="geometry" />
        </mxCell>
        <mxCell id="O671pm1vnd5rE1woO-lj-5" value="" style="edgeStyle=orthogonalEdgeStyle;rounded=0;orthogonalLoop=1;jettySize=auto;html=1;endArrow=none;endFill=0;" edge="1" parent="1" source="O671pm1vnd5rE1woO-lj-4" target="O671pm1vnd5rE1woO-lj-3">
          <mxGeometry relative="1" as="geometry" />
        </mxCell>
        <mxCell id="O671pm1vnd5rE1woO-lj-6" value="LOGIN" style="edgeLabel;html=1;align=center;verticalAlign=middle;resizable=0;points=[];" vertex="1" connectable="0" parent="O671pm1vnd5rE1woO-lj-5">
          <mxGeometry x="0.0649" y="3" relative="1" as="geometry">
            <mxPoint as="offset" />
          </mxGeometry>
        </mxCell>
        <mxCell id="O671pm1vnd5rE1woO-lj-29" value="" style="edgeStyle=orthogonalEdgeStyle;rounded=0;orthogonalLoop=1;jettySize=auto;html=1;endArrow=none;endFill=0;" edge="1" parent="1" source="O671pm1vnd5rE1woO-lj-30" target="O671pm1vnd5rE1woO-lj-28">
          <mxGeometry relative="1" as="geometry" />
        </mxCell>
        <mxCell id="O671pm1vnd5rE1woO-lj-4" value="" style="outlineConnect=0;dashed=0;verticalLabelPosition=bottom;verticalAlign=top;align=center;html=1;shape=mxgraph.aws3.management_console;fillColor=#F58534;gradientColor=none;" vertex="1" parent="1">
          <mxGeometry x="80.5" y="600" width="63" height="63" as="geometry" />
        </mxCell>
        <mxCell id="O671pm1vnd5rE1woO-lj-12" style="edgeStyle=orthogonalEdgeStyle;rounded=0;orthogonalLoop=1;jettySize=auto;html=1;endArrow=none;endFill=0;" edge="1" parent="1" source="O671pm1vnd5rE1woO-lj-9" target="O671pm1vnd5rE1woO-lj-11">
          <mxGeometry relative="1" as="geometry">
            <mxPoint x="170" y="195.5" as="sourcePoint" />
            <mxPoint x="390.5" y="196.5" as="targetPoint" />
          </mxGeometry>
        </mxCell>
        <mxCell id="O671pm1vnd5rE1woO-lj-13" value="ESCOLHA DO &lt;br&gt;ARQUIVO&amp;nbsp;&lt;br&gt;EM PDF PARA &lt;br&gt;DOWNLOAD" style="edgeLabel;html=1;align=center;verticalAlign=middle;resizable=0;points=[];" vertex="1" connectable="0" parent="O671pm1vnd5rE1woO-lj-12">
          <mxGeometry x="-0.272" y="-1" relative="1" as="geometry">
            <mxPoint x="23" as="offset" />
          </mxGeometry>
        </mxCell>
        <mxCell id="O671pm1vnd5rE1woO-lj-31" style="edgeStyle=orthogonalEdgeStyle;rounded=0;orthogonalLoop=1;jettySize=auto;html=1;endArrow=none;endFill=0;" edge="1" parent="1" source="O671pm1vnd5rE1woO-lj-32" target="O671pm1vnd5rE1woO-lj-28">
          <mxGeometry relative="1" as="geometry" />
        </mxCell>
        <mxCell id="O671pm1vnd5rE1woO-lj-9" value="" style="outlineConnect=0;dashed=0;verticalLabelPosition=bottom;verticalAlign=top;align=center;html=1;shape=mxgraph.aws3.lambda_function;fillColor=#F58534;gradientColor=none;" vertex="1" parent="1">
          <mxGeometry x="77.5" y="237" width="69" height="72" as="geometry" />
        </mxCell>
        <mxCell id="O671pm1vnd5rE1woO-lj-11" value="" style="sketch=0;pointerEvents=1;shadow=0;dashed=0;html=1;strokeColor=none;fillColor=#DF8C42;labelPosition=center;verticalLabelPosition=bottom;verticalAlign=top;align=center;outlineConnect=0;shape=mxgraph.veeam2.aws_s3;" vertex="1" parent="1">
          <mxGeometry x="276.5" y="239" width="70" height="70" as="geometry" />
        </mxCell>
        <mxCell id="O671pm1vnd5rE1woO-lj-16" value="LAMBDA" style="text;html=1;align=center;verticalAlign=middle;whiteSpace=wrap;rounded=0;" vertex="1" parent="1">
          <mxGeometry x="82" y="209" width="60" height="30" as="geometry" />
        </mxCell>
        <mxCell id="O671pm1vnd5rE1woO-lj-17" value="S3" style="text;html=1;align=center;verticalAlign=middle;whiteSpace=wrap;rounded=0;" vertex="1" parent="1">
          <mxGeometry x="281.5" y="209" width="60" height="30" as="geometry" />
        </mxCell>
        <mxCell id="O671pm1vnd5rE1woO-lj-19" style="edgeStyle=orthogonalEdgeStyle;rounded=0;orthogonalLoop=1;jettySize=auto;html=1;exitX=0.5;exitY=1;exitDx=0;exitDy=0;" edge="1" parent="1">
          <mxGeometry relative="1" as="geometry">
            <mxPoint x="215" y="330" as="sourcePoint" />
            <mxPoint x="215" y="330" as="targetPoint" />
          </mxGeometry>
        </mxCell>
        <mxCell id="O671pm1vnd5rE1woO-lj-38" style="edgeStyle=orthogonalEdgeStyle;rounded=0;orthogonalLoop=1;jettySize=auto;html=1;endArrow=none;endFill=0;" edge="1" parent="1" source="O671pm1vnd5rE1woO-lj-28" target="O671pm1vnd5rE1woO-lj-37">
          <mxGeometry relative="1" as="geometry" />
        </mxCell>
        <mxCell id="O671pm1vnd5rE1woO-lj-28" value="" style="points=[];aspect=fixed;html=1;align=center;shadow=0;dashed=0;fillColor=#FF6A00;strokeColor=none;shape=mxgraph.alibaba_cloud.pnvs_phone_number_verification_service;" vertex="1" parent="1">
          <mxGeometry x="87.22999999999999" y="430" width="49.53" height="70.1" as="geometry" />
        </mxCell>
        <mxCell id="O671pm1vnd5rE1woO-lj-33" value="" style="edgeStyle=orthogonalEdgeStyle;rounded=0;orthogonalLoop=1;jettySize=auto;html=1;endArrow=none;endFill=0;" edge="1" parent="1" source="O671pm1vnd5rE1woO-lj-9" target="O671pm1vnd5rE1woO-lj-32">
          <mxGeometry relative="1" as="geometry">
            <mxPoint x="112" y="162" as="sourcePoint" />
            <mxPoint x="112" y="320" as="targetPoint" />
          </mxGeometry>
        </mxCell>
        <mxCell id="O671pm1vnd5rE1woO-lj-32" value="NAVEGAR PELOS PDFs" style="text;html=1;align=center;verticalAlign=middle;whiteSpace=wrap;rounded=0;" vertex="1" parent="1">
          <mxGeometry x="82" y="370" width="60" height="30" as="geometry" />
        </mxCell>
        <mxCell id="O671pm1vnd5rE1woO-lj-35" value="PROJETO:&lt;br&gt;APLICATIVO DE PDFs DE CROCHE, ONDE O USUÃRIO PRECISA E PODE:&lt;br&gt;1- LOGAR NO APLICATIVO&lt;br&gt;2- PODE NAVEGAR PELO APLICATIVO&lt;br&gt;3- ESCOLHER A RECEITA DE PDFs QUE ELE DESEJA&amp;nbsp;&lt;br&gt;4- FAZER O DOWNLOAD." style="text;html=1;align=center;verticalAlign=middle;whiteSpace=wrap;rounded=0;" vertex="1" parent="1">
          <mxGeometry x="217.5" y="680" width="250" height="30" as="geometry" />
        </mxCell>
        <mxCell id="O671pm1vnd5rE1woO-lj-36" value="" style="edgeStyle=orthogonalEdgeStyle;rounded=0;orthogonalLoop=1;jettySize=auto;html=1;endArrow=none;endFill=0;" edge="1" parent="1" source="O671pm1vnd5rE1woO-lj-4" target="O671pm1vnd5rE1woO-lj-30">
          <mxGeometry relative="1" as="geometry">
            <mxPoint x="112" y="585" as="sourcePoint" />
            <mxPoint x="112" y="390" as="targetPoint" />
          </mxGeometry>
        </mxCell>
        <mxCell id="O671pm1vnd5rE1woO-lj-30" value="VERIFICADOR DE ACESSO" style="text;html=1;align=center;verticalAlign=middle;whiteSpace=wrap;rounded=0;" vertex="1" parent="1">
          <mxGeometry x="82" y="530" width="60" height="30" as="geometry" />
        </mxCell>
        <mxCell id="O671pm1vnd5rE1woO-lj-40" style="edgeStyle=orthogonalEdgeStyle;rounded=0;orthogonalLoop=1;jettySize=auto;html=1;endArrow=none;endFill=0;" edge="1" parent="1" source="O671pm1vnd5rE1woO-lj-37" target="O671pm1vnd5rE1woO-lj-39">
          <mxGeometry relative="1" as="geometry" />
        </mxCell>
        <mxCell id="O671pm1vnd5rE1woO-lj-42" value="" style="edgeStyle=orthogonalEdgeStyle;rounded=0;orthogonalLoop=1;jettySize=auto;html=1;endArrow=none;endFill=0;" edge="1" parent="1" source="O671pm1vnd5rE1woO-lj-37" target="O671pm1vnd5rE1woO-lj-11">
          <mxGeometry relative="1" as="geometry" />
        </mxCell>
        <mxCell id="O671pm1vnd5rE1woO-lj-37" value="EC2" style="outlineConnect=0;dashed=0;verticalLabelPosition=bottom;verticalAlign=top;align=center;html=1;shape=mxgraph.aws3.ec2;fillColor=#F58534;gradientColor=none;" vertex="1" parent="1">
          <mxGeometry x="273.25" y="418.55" width="76.5" height="93" as="geometry" />
        </mxCell>
        <mxCell id="O671pm1vnd5rE1woO-lj-39" value="EBS" style="outlineConnect=0;dashed=0;verticalLabelPosition=bottom;verticalAlign=top;align=center;html=1;shape=mxgraph.aws3.volume;fillColor=#E05243;gradientColor=none;" vertex="1" parent="1">
          <mxGeometry x="467.5" y="427.55" width="52.5" height="75" as="geometry" />
        </mxCell>
      </root>
    </mxGraphModel>
  </diagram>
</mxfile>
